<svg xmlns="http://www.w3.org/2000/svg" width="1280" height="720" viewBox="0 0 1280 720" role="img" aria-labelledby="title desc">
  <title id="title">Finplex AI React Tenant Workspace Preview</title>
  <desc id="desc">A clean tenant workspace preview showing invoice intelligence, review queue, risk, evidence, and human approval.</desc>
  <rect width="1280" height="720" fill="#f5f6f8"/>
  <rect x="50" y="42" width="1180" height="636" rx="28" fill="#ffffff" stroke="#d9dde5"/>
  <rect x="50" y="42" width="1180" height="78" rx="28" fill="#111827"/>
  <text x="92" y="92" fill="#ffffff" font-family="Inter, Arial, sans-serif" font-size="28" font-weight="700">Finplex AI</text>
  <text x="238" y="92" fill="#cbd5e1" font-family="Inter, Arial, sans-serif" font-size="16">Tenant Workspace</text>
  <rect x="984" y="65" width="190" height="32" rx="16" fill="#374151"/>
  <text x="1010" y="87" fill="#ffffff" font-family="Inter, Arial, sans-serif" font-size="14">Cedar Finance</text>
  <text x="92" y="166" fill="#111827" font-family="Inter, Arial, sans-serif" font-size="31" font-weight="700">Invoice Intelligence Review</text>
  <text x="92" y="202" fill="#6b7280" font-family="Inter, Arial, sans-serif" font-size="17">OCR extraction, LangGraph AI, evidence retrieval, guardrails, and human approval.</text>
  <rect x="92" y="238" width="250" height="128" rx="18" fill="#f9fafb" stroke="#e5e7eb"/>
  <text x="120" y="280" fill="#374151" font-family="Inter, Arial, sans-serif" font-size="16">Invoices In Review</text>
  <text x="120" y="326" fill="#111827" font-family="Inter, Arial, sans-serif" font-size="42" font-weight="700">8</text>
  <rect x="374" y="238" width="250" height="128" rx="18" fill="#f9fafb" stroke="#e5e7eb"/>
  <text x="402" y="280" fill="#374151" font-family="Inter, Arial, sans-serif" font-size="16">High Risk</text>
  <text x="402" y="326" fill="#b45309" font-family="Inter, Arial, sans-serif" font-size="42" font-weight="700">3</text>
  <rect x="656" y="238" width="250" height="128" rx="18" fill="#f9fafb" stroke="#e5e7eb"/>
  <text x="684" y="280" fill="#374151" font-family="Inter, Arial, sans-serif" font-size="16">Guardrails Passed</text>
  <text x="684" y="326" fill="#047857" font-family="Inter, Arial, sans-serif" font-size="42" font-weight="700">100%</text>
  <rect x="938" y="238" width="236" height="128" rx="18" fill="#111827"/>
  <text x="966" y="280" fill="#ffffff" font-family="Inter, Arial, sans-serif" font-size="16">Upload Invoice</text>
  <text x="966" y="326" fill="#cbd5e1" font-family="Inter, Arial, sans-serif" font-size="17">PNG, PDF, TXT</text>
  <rect x="92" y="404" width="514" height="208" rx="18" fill="#ffffff" stroke="#d1d5db"/>
  <text x="124" y="448" fill="#111827" font-family="Inter, Arial, sans-serif" font-size="22" font-weight="700">AI Review Queue</text>
  <rect x="124" y="476" width="450" height="42" rx="10" fill="#f3f4f6"/>
  <text x="144" y="503" fill="#111827" font-family="Inter, Arial, sans-serif" font-size="15">INV-2026-118 • Orion Medical • Critical</text>
  <rect x="124" y="532" width="450" height="42" rx="10" fill="#f9fafb" stroke="#e5e7eb"/>
  <text x="144" y="559" fill="#374151" font-family="Inter, Arial, sans-serif" font-size="15">INV-2026-121 • Cedar Clinic • Medium</text>
  <rect x="646" y="404" width="528" height="208" rx="18" fill="#ffffff" stroke="#d1d5db"/>
  <text x="678" y="448" fill="#111827" font-family="Inter, Arial, sans-serif" font-size="22" font-weight="700">Evidence-Grounded Draft</text>
  <text x="678" y="488" fill="#374151" font-family="Inter, Arial, sans-serif" font-size="15">Risk signals, ERP/CRM citations, and policy evidence are visible before approval.</text>
  <rect x="678" y="522" width="150" height="44" rx="12" fill="#047857"/>
  <text x="720" y="550" fill="#ffffff" font-family="Inter, Arial, sans-serif" font-size="15" font-weight="700">Approve</text>
  <rect x="846" y="522" width="150" height="44" rx="12" fill="#f3f4f6" stroke="#d1d5db"/>
  <text x="892" y="550" fill="#111827" font-family="Inter, Arial, sans-serif" font-size="15" font-weight="700">Edit</text>
  <rect x="1014" y="522" width="128" height="44" rx="12" fill="#f3f4f6" stroke="#d1d5db"/>
  <text x="1054" y="550" fill="#111827" font-family="Inter, Arial, sans-serif" font-size="15" font-weight="700">Reject</text>
</svg>
