<svg xmlns="http://www.w3.org/2000/svg" width="1280" height="720" viewBox="0 0 1280 720" role="img" aria-labelledby="title desc">
  <title id="title">Finplex AI Streamlit Platform Admin Preview</title>
  <desc id="desc">A clean admin interface preview showing tenant management, platform health, and tenant creation controls.</desc>
  <rect width="1280" height="720" fill="#f6f7f9"/>
  <rect x="70" y="56" width="1140" height="608" rx="28" fill="#ffffff" stroke="#d9dde5"/>
  <rect x="70" y="56" width="280" height="608" rx="28" fill="#1f2937"/>
  <text x="112" y="112" fill="#ffffff" font-family="Inter, Arial, sans-serif" font-size="34" font-weight="700">Finplex AI</text>
  <text x="112" y="148" fill="#cbd5e1" font-family="Inter, Arial, sans-serif" font-size="18">Platform Admin</text>
  <rect x="110" y="202" width="200" height="44" rx="12" fill="#374151"/>
  <text x="132" y="231" fill="#ffffff" font-family="Inter, Arial, sans-serif" font-size="16">Tenant Management</text>
  <text x="132" y="292" fill="#cbd5e1" font-family="Inter, Arial, sans-serif" font-size="16">Create Admins</text>
  <text x="132" y="342" fill="#cbd5e1" font-family="Inter, Arial, sans-serif" font-size="16">System Health</text>
  <text x="132" y="392" fill="#cbd5e1" font-family="Inter, Arial, sans-serif" font-size="16">Audit Overview</text>
  <text x="404" y="118" fill="#111827" font-family="Inter, Arial, sans-serif" font-size="32" font-weight="700">Platform Operations</text>
  <text x="404" y="154" fill="#6b7280" font-family="Inter, Arial, sans-serif" font-size="17">Create tenants, first tenant admins, and monitor local product health.</text>
  <rect x="404" y="194" width="220" height="112" rx="18" fill="#f3f4f6" stroke="#e5e7eb"/>
  <text x="430" y="236" fill="#374151" font-family="Inter, Arial, sans-serif" font-size="16">Active Tenants</text>
  <text x="430" y="278" fill="#111827" font-family="Inter, Arial, sans-serif" font-size="38" font-weight="700">2</text>
  <rect x="654" y="194" width="220" height="112" rx="18" fill="#f3f4f6" stroke="#e5e7eb"/>
  <text x="680" y="236" fill="#374151" font-family="Inter, Arial, sans-serif" font-size="16">API Health</text>
  <text x="680" y="278" fill="#047857" font-family="Inter, Arial, sans-serif" font-size="34" font-weight="700">OK</text>
  <rect x="904" y="194" width="220" height="112" rx="18" fill="#f3f4f6" stroke="#e5e7eb"/>
  <text x="930" y="236" fill="#374151" font-family="Inter, Arial, sans-serif" font-size="16">Admin Users</text>
  <text x="930" y="278" fill="#111827" font-family="Inter, Arial, sans-serif" font-size="38" font-weight="700">6</text>
  <rect x="404" y="344" width="720" height="250" rx="18" fill="#ffffff" stroke="#d1d5db"/>
  <text x="434" y="390" fill="#111827" font-family="Inter, Arial, sans-serif" font-size="23" font-weight="700">Create Tenant</text>
  <rect x="434" y="424" width="300" height="42" rx="10" fill="#f9fafb" stroke="#d1d5db"/>
  <text x="452" y="452" fill="#6b7280" font-family="Inter, Arial, sans-serif" font-size="15">Company name</text>
  <rect x="762" y="424" width="300" height="42" rx="10" fill="#f9fafb" stroke="#d1d5db"/>
  <text x="780" y="452" fill="#6b7280" font-family="Inter, Arial, sans-serif" font-size="15">Tenant admin email</text>
  <rect x="434" y="492" width="628" height="52" rx="12" fill="#111827"/>
  <text x="690" y="526" fill="#ffffff" font-family="Inter, Arial, sans-serif" font-size="17" font-weight="700">Create Tenant And Admin</text>
</svg>
